{"title":"Fargo.S03E08.480p.WEB-DL.x264-ATOMICO","magnet":"magnet:?xt=urn:btih:8cdbc9379141486865e10526a5827d933a0cb86e&dn=Fargo.S03E08.480p.WEB-DL.x264-ATOMICO&tr=udp%3A%2F%2Ftracker.leechers-paradise.org%3A6969&tr=udp%3A%2F%2Fzer0day.ch%3A1337&tr=udp%3A%2F%2Fopen.demonii.com%3A1337&tr=udp%3A%2F%2Ftracker.coppersurfer.tk%3A6969&tr=udp%3A%2F%2Fexodus.desync.com%3A6969","uploader":"medorc","categoryP":"video","categoryS":"tv_shows","size":"293091456","seeders":"2","leechers":"10","description":"General\r\nComplete name               : Fargo.S03E08.480p.WEB-DL.x264-ATOMICO.mp4\r\nFormat                      : MPEG-4\r\nFormat profile              : Base Media / Version 2\r\nCodec ID                    : mp42 (isom/iso2/avc1/mp41)\r\nFile size                   : 279 MiB\r\nDuration                    : 51 min 1 s\r\nOverall bit rate mode       : Variable\r\nOverall bit rate            : 766 kb/s\r\nMovie name                  : Fargo 3.8 Who Rules the Land of Denial?\r\nEncoded date                : UTC 2017-06-08 08:25:23\r\nTagged date                 : UTC 2017-06-08 08:25:23\r\nWriting application         : ATOMICO\r\n\r\nVideo\r\nID                          : 1\r\nFormat                      : AVC\r\nFormat/Info                 : Advanced Video Codec\r\nFormat profile              : <a class=\"__cf_email__\" href=\"/cdn-cgi/l/email-protection\" data-cfemail=\"bbf3d2dcd3fbf788958a\">[email&#xA0;protected]</a><script data-cfhash=\"f9e31\" type=\"text/javascript\">/* <![CDATA[ */!function(t,e,r,n,c,a,p){try{t=document.currentScript||function(){for(t=document.getElementsByTagName('script'),e=t.length;e--;)if(t[e].getAttribute('data-cfhash'))return t[e]}();if(t&&(c=t.previousSibling)){p=t.parentNode;if(a=c.getAttribute('data-cfemail')){for(e='',r='0x'+a.substr(0,2)|0,n=2;a.length-n;n+=2)e+='%'+('0'+('0x'+a.substr(n,2)^r).toString(16)).slice(-2);p.replaceChild(document.createTextNode(decodeURIComponent(e)),c)}p.removeChild(t)}}catch(u){}}()/* ]]> */</script>\r\nFormat settings, CABAC      : Yes\r\nFormat settings, ReFrames   : 11 frames\r\nCodec ID                    : avc1\r\nCodec ID/Info               : Advanced Video Coding\r\nDuration                    : 51 min 1 s\r\nBit rate                    : 632 kb/s\r\nWidth                       : 852 pixels\r\nHeight                      : 480 pixels\r\nDisplay aspect ratio        : 16:9\r\nFrame rate mode             : Variable\r\nFrame rate                  : 23.976 (23976/1000) FPS\r\nMinimum frame rate          : 11.947 FPS\r\nMaximum frame rate          : 23.981 FPS\r\nColor space                 : YUV\r\nChroma subsampling          : 4:2:0\r\nBit depth                   : 8 bits\r\nScan type                   : Progressive\r\nBits/(Pixel*Frame)          : 0.064\r\nStream size                 : 231 MiB (82%)\r\nWriting library             : x264 core 148 r2708 86b7198\r\nEncoded date                : UTC 2017-06-08 08:25:23\r\nTagged date                 : UTC 2017-06-08 08:25:23\r\nColor range                 : Limited\r\nColor primaries             : BT.709\r\nTransfer characteristics    : BT.709\r\nMatrix coefficients         : BT.709\r\n\r\nAudio\r\nID                          : 2\r\nFormat                      : AAC\r\nFormat/Info                 : Advanced Audio Codec\r\nFormat profile              : LC\r\nCodec ID                    : 40\r\nDuration                    : 51 min 1 s\r\nBit rate mode               : Variable\r\nBit rate                    : 127 kb/s\r\nChannel(s)                  : 2 channels\r\nChannel positions           : Front: L R\r\nSampling rate               : 48.0 kHz\r\nFrame rate                  : 46.875 FPS (1024 spf)\r\nCompression mode            : Lossy\r\nStream size                 : 46.5 MiB (17%)\r\nTitle                       : Stereo / Stereo\r\nLanguage                    : English\r\nDefault                     : Yes\r\nAlternate group             : 1\r\nEncoded date                : UTC 2017-06-08 08:25:23\r\nTagged date                 : UTC 2017-06-08 08:25:23","last_updated":"2017-06-08T12:00:49.655Z","parsed":{"xt":"urn:btih:8cdbc9379141486865e10526a5827d933a0cb86e","dn":"Fargo.S03E08.480p.WEB-DL.x264-ATOMICO","tr":["udp://exodus.desync.com:6969","udp://open.demonii.com:1337","udp://tracker.coppersurfer.tk:6969","udp://tracker.leechers-paradise.org:6969","udp://zer0day.ch:1337"],"infoHash":"8cdbc9379141486865e10526a5827d933a0cb86e","infoHashBuffer":{"type":"Buffer","data":[140,219,201,55,145,65,72,104,101,225,5,38,165,130,125,147,58,12,184,110]},"name":"Fargo.S03E08.480p.WEB-DL.x264-ATOMICO","announce":["udp://exodus.desync.com:6969","udp://open.demonii.com:1337","udp://tracker.coppersurfer.tk:6969","udp://tracker.leechers-paradise.org:6969","udp://zer0day.ch:1337"],"urlList":[]}}